<svg version="1.1" viewBox="0.0 0.0 507.03412073490813 544.9632545931759" fill="none" stroke="none" stroke-linecap="square" stroke-miterlimit="10" xmlns:xlink="http://www.w3.org/1999/xlink" xmlns="http://www.w3.org/2000/svg"><clipPath id="p.0"><path d="m0 0l507.03412 0l0 544.96326l-507.03412 0l0 -544.96326z" clip-rule="nonzero"/></clipPath><g clip-path="url(#p.0)"><path fill="#000000" fill-opacity="0.0" d="m0 0l507.03412 0l0 544.96326l-507.03412 0z" fill-rule="evenodd"/><path fill="#000000" fill-opacity="0.0" d="m1.7401575 -108.51706l514.45667 0l0 695.4331l-514.45667 0z" fill-rule="evenodd"/><path fill="#4a86e8" d="m58.912033 189.31107l0 -53.390625l53.390625 0l0 53.390625l-53.390625 0zm0 223.17188l0 -53.390625l53.390625 0l0 53.390625l-53.390625 0zm372.91376 112.234344q-38.796875 -48.953094 -65.625 -114.578094q-26.8125 -65.625 -26.8125 -135.9375q0 -61.984375 20.046875 -118.75q23.4375 -65.875 72.390625 -131.25l33.59375 0q-31.5 54.171875 -41.65625 77.34375q-15.890625 35.9375 -25.0 75.0q-11.203125 48.703125 -11.203125 97.921875q0 125.25 77.859375 250.24997l-33.59375 0z" fill-rule="nonzero"/></g></svg>